# xmcd
#
# Track frame offsets:
#	150
#	22355
#	39607
#	56725
#	74772
#	93355
#	109235
#	125077
#	142665
#	158837
#	177210
#	192910
#	209012
#
# Disc length: 2989 seconds
#
# Revision: 1
# Processed by: cddbd v1.5.2PL0 Copyright (c) Steve Scherf et al.
# Submitted via: audiograbber 1.83.01
#
DISCID=c80bab0d
DTITLE=ricky martin - ricky martin life
DYEAR=1900
DGENRE=
TTITLE0=Til I get to you
TTITLE1=I won't desert you
TTITLE2=I don't care
TTITLE3=Stop time tonight
TTITLE4=Life
TTITLE5=I am
TTITLE6=It's alright
TTITLE7=Drop it on me
TTITLE8=This is good
TTITLE9=Save the dance
TTITLE10=Que mas da
TTITLE11=Dejate lleuaa
TTITLE12=It's alright 
EXTD=
EXTT0=
EXTT1=
EXTT2=
EXTT3=
EXTT4=
EXTT5=
EXTT6=
EXTT7=
EXTT8=
EXTT9=
EXTT10=
EXTT11=
EXTT12=
PLAYORDER=
